<?xml version="1.0" encoding="UTF-8" standalone="no"?>
<!-- Created with Inkscape (http://www.inkscape.org/) -->

<svg
   version="1.1"
   id="svg2"
   xml:space="preserve"
   width="400"
   height="178.66667"
   viewBox="0 0 400 178.66667"
   sodipodi:docname="Rove final logo.ai"
   xmlns:inkscape="http://www.inkscape.org/namespaces/inkscape"
   xmlns:sodipodi="http://sodipodi.sourceforge.net/DTD/sodipodi-0.dtd"
   xmlns="http://www.w3.org/2000/svg"
   xmlns:svg="http://www.w3.org/2000/svg"><defs
     id="defs6"><clipPath
       clipPathUnits="userSpaceOnUse"
       id="clipPath16"><path
         d="M 0,134 H 300 V 0 H 0 Z"
         id="path14" /></clipPath></defs><sodipodi:namedview
     id="namedview4"
     pagecolor="#ffffff"
     bordercolor="#666666"
     borderopacity="1.0"
     inkscape:pageshadow="2"
     inkscape:pageopacity="0.0"
     inkscape:pagecheckerboard="0" /><g
     id="g8"
     inkscape:groupmode="layer"
     inkscape:label="Rove final logo"
     transform="matrix(1.3333333,0,0,-1.3333333,0,178.66667)"><g
       id="g10"><g
         id="g12"
         clip-path="url(#clipPath16)"><g
           id="g18"
           transform="translate(73.7637,94.3521)"><path
             d="m 0,0 c -3.724,1.972 -7.448,3.943 -11.172,5.915 -3.128,1.656 -6.45,3.206 -8.974,-0.591 -2.332,-3.511 -1.162,-9.885 -1.148,-13.951 0.02,-6.029 -0.008,-12.058 -0.043,-18.087 -0.023,-3.897 -0.05,-7.793 -0.085,-11.69 -0.009,-0.889 0.505,-1.927 1.335,-2.329 8.726,-4.222 17.451,-8.444 26.178,-12.667 1.798,-0.87 4.056,0.163 4.056,2.328 V -7.285 C 9.703,-8.062 9.258,-8.837 8.813,-9.614 c 5.288,2.781 10.609,5.529 16.038,8.026 1.643,0.756 3.343,1.561 5.122,1.952 0.263,0.058 0.822,0.075 0.818,0.077 -0.36,0.185 -0.139,0.084 -0.169,-0.269 -0.54,-6.404 -0.298,-13.051 -0.484,-19.498 -0.2,-6.91 -0.399,-13.82 -0.598,-20.73 0.445,0.776 0.89,1.552 1.335,2.328 -4.59,-2.387 -9.18,-4.773 -13.769,-7.16 -3.081,-1.602 -0.356,-6.258 2.722,-4.656 l 13.77,7.16 c 0.848,0.44 1.308,1.407 1.335,2.328 0.241,8.364 0.482,16.729 0.723,25.094 0.116,4.001 0.208,8.002 0.347,12.002 0.089,2.562 0.29,5.425 -1.726,7.37 C 31.701,6.896 27.966,5.553 25.112,4.376 18.598,1.688 12.323,-1.679 6.091,-4.957 5.261,-5.393 4.755,-6.368 4.755,-7.285 v -43.787 c 1.352,0.777 2.705,1.552 4.058,2.328 l -26.177,12.668 c 0.444,-0.776 0.889,-1.552 1.335,-2.328 0.073,8.023 0.123,16.047 0.133,24.07 0.004,4.355 0.017,8.712 -0.087,13.067 -0.026,1.074 0.046,2.104 0.142,3.164 0.015,0.169 0.158,0.332 0.177,0.492 -10e-4,-0.006 -0.041,0.11 0.019,0.035 0.434,-0.535 -1.764,0.879 -0.688,0.125 0.671,-0.47 1.514,-0.801 2.237,-1.184 3.791,-2.007 7.582,-4.014 11.374,-6.022 C 0.344,-6.279 3.071,-1.626 0,0"
             style="fill:#231f20;fill-opacity:1;fill-rule:nonzero;stroke:none"
             id="path20" /></g><g
           id="g22"
           transform="translate(40.8818,88.9946)"><path
             d="m 0,0 c -0.03,-14.442 -0.062,-28.885 -0.092,-43.328 -0.003,-1.299 0.863,-2.148 1.98,-2.6 7.824,-3.162 15.647,-6.325 23.47,-9.489 3.894,-1.573 7.781,-3.152 11.641,-4.802 2.72,-1.162 5.493,-1.752 8.455,-1.353 4.842,0.653 9.366,3.743 13.639,5.935 6.645,3.408 13.267,6.86 19.87,10.348 0.83,0.438 1.336,1.411 1.336,2.329 v 29.374 c 0,3.47 -5.393,3.476 -5.393,0 V -42.96 c 0.445,0.776 0.89,1.551 1.335,2.328 -6.119,-3.233 -12.254,-6.434 -18.409,-9.598 -3.892,-2 -8.362,-5.239 -12.716,-5.978 -3.62,-0.613 -6.813,1.339 -10.04,2.644 -3.222,1.302 -6.443,2.605 -9.664,3.906 l -22.09,8.93 c 0.659,-0.866 1.32,-1.733 1.98,-2.6 C 5.332,-28.885 5.362,-14.442 5.394,0 5.4,3.47 0.008,3.476 0,0"
             style="fill:#000000;fill-opacity:1;fill-rule:nonzero;stroke:none"
             id="path24" /></g><g
           id="g26"
           transform="translate(121.6055,87.3423)"><path
             d="m 0,0 c 0,-1.673 -1.356,-3.029 -3.029,-3.029 -1.673,0 -3.03,1.356 -3.03,3.029 0,1.673 1.357,3.029 3.03,3.029 C -1.356,3.029 0,1.673 0,0"
             style="fill:#231f20;fill-opacity:1;fill-rule:nonzero;stroke:none"
             id="path28" /></g><g
           id="g30"
           transform="translate(149.1152,77.5518)"><path
             d="M 0,0 4.351,3.585 14.927,-14.844 H 8.173 Z m 0.508,3.201 c 4.64,0 7.168,1.926 7.168,5.78 0,3.895 -2.528,5.242 -7.168,5.242 H -4.277 V 3.201 Z M -10.286,19.029 H 1.13 c 7.043,0 12.472,-2.485 12.472,-10.048 0,-7.282 -5.429,-10.586 -12.472,-10.586 h -5.407 v -13.239 h -6.009 z"
             style="fill:#ce1f37;fill-opacity:1;fill-rule:nonzero;stroke:none"
             id="path32" /></g><g
           id="g34"
           transform="translate(191.3975,79.7798)"><path
             d="m 0,0 c 0,7.603 -3.438,12.203 -8.764,12.203 -5.325,0 -8.763,-4.6 -8.763,-12.203 0,-7.604 3.438,-12.473 8.763,-12.473 C -3.438,-12.473 0,-7.604 0,0 m -23.701,0 c 0,10.959 6.112,17.423 14.937,17.423 8.826,0 14.938,-6.495 14.938,-17.423 0,-10.96 -6.112,-17.693 -14.938,-17.693 -8.825,0 -14.937,6.733 -14.937,17.693"
             style="fill:#ce1f37;fill-opacity:1;fill-rule:nonzero;stroke:none"
             id="path36" /></g><g
           id="g38"
           transform="translate(199.3604,96.5811)"><path
             d="m 0,0 h 6.36 l 4.765,-17.03 c 1.099,-3.842 1.845,-7.167 2.984,-11.022 h 0.206 c 1.141,3.855 1.918,7.18 2.984,11.022 L 22.002,0 h 6.133 L 17.651,-33.873 h -7.127 z"
             style="fill:#ce1f37;fill-opacity:1;fill-rule:nonzero;stroke:none"
             id="path40" /></g><g
           id="g42"
           transform="translate(231.2949,96.5811)"><path
             d="M 0,0 H 20.388 V -5.055 H 6.009 v -8.681 H 18.19 v -5.055 H 6.009 v -10.027 h 14.895 v -5.055 H 0 Z"
             style="fill:#ce1f37;fill-opacity:1;fill-rule:nonzero;stroke:none"
             id="path44" /></g><g
           id="g46"
           transform="translate(140.2627,41.4551)"><path
             d="m 0,0 c -0.074,0.074 -0.111,0.17 -0.111,0.284 v 11.287 c 0,0.116 0.037,0.209 0.111,0.285 0.076,0.075 0.17,0.113 0.285,0.113 H 1.2 c 0.115,0 0.209,-0.038 0.285,-0.113 C 1.56,11.78 1.598,11.687 1.598,11.571 V 0.284 C 1.598,0.17 1.56,0.074 1.485,0 1.409,-0.076 1.315,-0.112 1.2,-0.112 H 0.285 C 0.17,-0.112 0.076,-0.076 0,0"
             style="fill:#231f20;fill-opacity:1;fill-rule:nonzero;stroke:none"
             id="path48" /></g><g
           id="g50"
           transform="translate(144.9736,41.4551)"><path
             d="m 0,0 c -0.074,0.074 -0.111,0.17 -0.111,0.284 v 11.269 c 0,0.127 0.037,0.227 0.111,0.303 0.076,0.075 0.17,0.113 0.285,0.113 h 7.128 c 0.115,0 0.209,-0.038 0.285,-0.113 C 7.772,11.78 7.811,11.68 7.811,11.553 V 10.897 C 7.811,10.782 7.775,10.688 7.706,10.613 7.637,10.538 7.54,10.501 7.413,10.501 H 1.545 V 6.722 h 5.488 c 0.115,0 0.21,-0.037 0.285,-0.113 C 7.393,6.534 7.431,6.434 7.431,6.307 V 5.669 C 7.431,5.553 7.393,5.459 7.318,5.385 7.243,5.309 7.148,5.272 7.033,5.272 H 1.545 V 1.354 H 7.551 C 7.677,1.354 7.775,1.32 7.845,1.251 7.913,1.182 7.947,1.084 7.947,0.957 V 0.284 C 7.947,0.17 7.911,0.074 7.835,0 7.761,-0.076 7.665,-0.112 7.551,-0.112 H 0.285 C 0.17,-0.112 0.076,-0.076 0,0"
             style="fill:#231f20;fill-opacity:1;fill-rule:nonzero;stroke:none"
             id="path52" /></g><g
           id="g54"
           transform="translate(155.4316,41.4551)"><path
             d="m 0,0 c -0.075,0.074 -0.111,0.17 -0.111,0.284 v 11.287 c 0,0.116 0.036,0.209 0.111,0.285 0.075,0.075 0.17,0.113 0.284,0.113 H 1.2 c 0.114,0 0.209,-0.038 0.284,-0.113 C 1.56,11.78 1.597,11.687 1.597,11.571 V 1.39 h 5.73 C 7.452,1.39 7.553,1.352 7.628,1.277 7.703,1.201 7.74,1.101 7.74,0.975 V 0.284 C 7.74,0.17 7.7,0.074 7.619,0 7.539,-0.076 7.441,-0.112 7.327,-0.112 H 0.284 C 0.17,-0.112 0.075,-0.076 0,0"
             style="fill:#231f20;fill-opacity:1;fill-rule:nonzero;stroke:none"
             id="path56" /></g><g
           id="g58"
           transform="translate(165.7344,41.4551)"><path
             d="m 0,0 c -0.074,0.074 -0.112,0.17 -0.112,0.284 v 10.148 h -3.314 c -0.114,0 -0.21,0.037 -0.284,0.112 -0.074,0.075 -0.112,0.17 -0.112,0.284 v 0.725 c 0,0.115 0.038,0.213 0.112,0.294 0.074,0.081 0.17,0.122 0.284,0.122 h 8.319 c 0.127,0 0.227,-0.038 0.301,-0.113 0.077,-0.076 0.113,-0.176 0.113,-0.303 v -0.725 c 0,-0.114 -0.04,-0.209 -0.12,-0.284 C 5.105,10.469 5.008,10.432 4.893,10.432 H 1.597 V 0.284 C 1.597,0.17 1.556,0.074 1.477,0 1.396,-0.076 1.297,-0.112 1.183,-0.112 H 0.285 C 0.17,-0.112 0.075,-0.076 0,0"
             style="fill:#231f20;fill-opacity:1;fill-rule:nonzero;stroke:none"
             id="path60" /></g><g
           id="g62"
           transform="translate(174.3115,41.6182)"><path
             d="m 0,0 c -0.696,0.299 -1.228,0.693 -1.596,1.184 -0.368,0.488 -0.563,1.014 -0.587,1.579 0,0.091 0.037,0.175 0.113,0.249 0.075,0.074 0.164,0.112 0.268,0.112 h 0.88 c 0.218,0 0.367,-0.115 0.448,-0.345 0.103,-0.483 0.4,-0.897 0.889,-1.243 0.489,-0.345 1.176,-0.517 2.063,-0.517 0.955,0 1.672,0.169 2.156,0.509 0.483,0.339 0.725,0.814 0.725,1.424 0,0.39 -0.118,0.707 -0.354,0.949 C 4.77,4.143 4.421,4.355 3.961,4.54 3.502,4.723 2.811,4.954 1.89,5.229 0.993,5.482 0.279,5.753 -0.249,6.04 -0.778,6.328 -1.176,6.685 -1.44,7.11 c -0.265,0.426 -0.398,0.961 -0.398,1.605 0,0.622 0.17,1.18 0.51,1.675 0.34,0.495 0.825,0.882 1.459,1.165 0.632,0.282 1.386,0.423 2.261,0.423 0.897,0 1.668,-0.16 2.311,-0.476 C 5.347,11.187 5.837,10.787 6.17,10.304 6.504,9.82 6.682,9.337 6.705,8.854 6.705,8.761 6.674,8.682 6.61,8.612 6.548,8.543 6.457,8.509 6.343,8.509 H 5.428 C 5.187,8.509 5.038,8.617 4.98,8.837 4.911,9.32 4.641,9.72 4.169,10.036 3.696,10.352 3.104,10.51 2.392,10.51 1.607,10.51 0.993,10.361 0.545,10.062 0.096,9.763 -0.129,9.32 -0.129,8.732 -0.129,8.342 -0.022,8.02 0.19,7.768 0.403,7.514 0.729,7.292 1.165,7.103 1.603,6.912 2.241,6.696 3.081,6.454 4.06,6.19 4.83,5.916 5.395,5.636 5.957,5.354 6.378,5.002 6.653,4.583 6.93,4.162 7.067,3.631 7.067,2.985 7.067,1.916 6.653,1.076 5.825,0.466 4.997,-0.144 3.881,-0.448 2.478,-0.448 1.521,-0.448 0.696,-0.299 0,0"
             style="fill:#231f20;fill-opacity:1;fill-rule:nonzero;stroke:none"
             id="path64" /></g><g
           id="g66"
           transform="translate(189.2734,41.6182)"><path
             d="m 0,0 c -0.695,0.299 -1.228,0.693 -1.596,1.184 -0.368,0.488 -0.562,1.014 -0.586,1.579 0,0.091 0.036,0.175 0.113,0.249 0.074,0.074 0.163,0.112 0.267,0.112 h 0.88 c 0.219,0 0.367,-0.115 0.448,-0.345 0.104,-0.483 0.4,-0.897 0.89,-1.243 0.488,-0.345 1.175,-0.517 2.062,-0.517 0.955,0 1.673,0.169 2.157,0.509 0.482,0.339 0.724,0.814 0.724,1.424 0,0.39 -0.118,0.707 -0.354,0.949 C 4.771,4.143 4.422,4.355 3.962,4.54 3.502,4.723 2.812,4.954 1.891,5.229 0.993,5.482 0.28,5.753 -0.249,6.04 -0.778,6.328 -1.175,6.685 -1.44,7.11 c -0.265,0.426 -0.397,0.961 -0.397,1.605 0,0.622 0.17,1.18 0.509,1.675 0.34,0.495 0.826,0.882 1.459,1.165 0.632,0.282 1.386,0.423 2.261,0.423 0.897,0 1.668,-0.16 2.311,-0.476 C 5.348,11.187 5.837,10.787 6.17,10.304 6.505,9.82 6.683,9.337 6.706,8.854 6.706,8.761 6.675,8.682 6.61,8.612 6.548,8.543 6.458,8.509 6.343,8.509 H 5.429 C 5.187,8.509 5.038,8.617 4.98,8.837 4.911,9.32 4.641,9.72 4.169,10.036 3.696,10.352 3.104,10.51 2.392,10.51 1.608,10.51 0.993,10.361 0.545,10.062 0.096,9.763 -0.129,9.32 -0.129,8.732 -0.129,8.342 -0.021,8.02 0.191,7.768 0.404,7.514 0.729,7.292 1.165,7.103 1.603,6.912 2.241,6.696 3.081,6.454 4.06,6.19 4.83,5.916 5.395,5.636 5.957,5.354 6.378,5.002 6.653,4.583 6.931,4.162 7.067,3.631 7.067,2.985 7.067,1.916 6.653,1.076 5.825,0.466 4.997,-0.144 3.881,-0.448 2.478,-0.448 1.522,-0.448 0.696,-0.299 0,0"
             style="fill:#231f20;fill-opacity:1;fill-rule:nonzero;stroke:none"
             id="path68" /></g><g
           id="g70"
           transform="translate(199.4385,42.4121)"><path
             d="m 0,0 c -0.799,0.828 -1.228,1.974 -1.285,3.436 -0.012,0.31 -0.017,0.815 -0.017,1.518 0,0.713 0.005,1.231 0.017,1.553 0.057,1.45 0.489,2.591 1.295,3.426 0.805,0.833 1.973,1.251 3.503,1.251 1.023,0 1.892,-0.182 2.606,-0.544 C 6.832,10.277 7.373,9.804 7.741,9.216 8.109,8.629 8.311,8.002 8.345,7.335 V 7.301 C 8.345,7.208 8.309,7.131 8.232,7.067 8.158,7.005 8.074,6.974 7.983,6.974 H 7.033 C 6.804,6.974 6.66,7.105 6.603,7.369 6.406,8.232 6.056,8.84 5.55,9.189 5.043,9.541 4.364,9.716 3.513,9.716 1.534,9.716 0.51,8.617 0.44,6.421 0.43,6.11 0.424,5.632 0.424,4.988 0.424,4.344 0.43,3.854 0.44,3.521 0.51,1.323 1.534,0.225 3.513,0.225 c 0.851,0 1.533,0.174 2.045,0.526 0.511,0.352 0.86,0.957 1.045,1.82 0.034,0.15 0.085,0.254 0.155,0.312 0.068,0.057 0.161,0.086 0.275,0.086 h 0.95 C 8.086,2.969 8.175,2.938 8.251,2.873 8.325,2.811 8.356,2.728 8.345,2.624 8.311,1.945 8.109,1.312 7.741,0.725 7.373,0.139 6.832,-0.336 6.119,-0.698 5.405,-1.061 4.536,-1.242 3.513,-1.242 1.972,-1.242 0.801,-0.828 0,0"
             style="fill:#231f20;fill-opacity:1;fill-rule:nonzero;stroke:none"
             id="path72" /></g><g
           id="g74"
           transform="translate(210.207,41.4551)"><path
             d="m 0,0 c -0.074,0.074 -0.11,0.17 -0.11,0.284 v 11.269 c 0,0.127 0.036,0.227 0.11,0.303 0.076,0.075 0.17,0.113 0.285,0.113 h 0.88 c 0.127,0 0.228,-0.038 0.304,-0.113 C 1.543,11.78 1.581,11.68 1.581,11.553 V 6.79 h 5.936 v 4.763 c 0,0.127 0.036,0.227 0.112,0.303 0.074,0.075 0.17,0.113 0.285,0.113 h 0.88 c 0.127,0 0.227,-0.038 0.302,-0.113 C 9.17,11.78 9.208,11.68 9.208,11.553 V 0.284 C 9.208,0.17 9.168,0.074 9.087,0 9.007,-0.076 8.909,-0.112 8.794,-0.112 H 7.914 C 7.799,-0.112 7.703,-0.076 7.629,0 7.553,0.074 7.517,0.17 7.517,0.284 V 5.237 H 1.581 V 0.284 C 1.581,0.17 1.54,0.074 1.459,0 1.378,-0.076 1.28,-0.112 1.165,-0.112 H 0.285 C 0.17,-0.112 0.076,-0.076 0,0"
             style="fill:#231f20;fill-opacity:1;fill-rule:nonzero;stroke:none"
             id="path76" /></g><g
           id="g78"
           transform="translate(228.9404,43.4648)"><path
             d="m 0,0 c 0.54,0.553 0.834,1.398 0.88,2.538 0.023,0.69 0.035,1.15 0.035,1.38 0,0.252 -0.012,0.714 -0.035,1.381 -0.046,1.138 -0.342,1.983 -0.888,2.536 -0.548,0.553 -1.268,0.828 -2.167,0.828 -0.909,0 -1.637,-0.275 -2.182,-0.828 -0.547,-0.553 -0.844,-1.398 -0.89,-2.536 -0.01,-0.334 -0.017,-0.794 -0.017,-1.381 0,-0.576 0.007,-1.035 0.017,-1.38 0.046,-1.14 0.343,-1.985 0.89,-2.538 0.545,-0.553 1.273,-0.828 2.182,-0.828 0.909,0 1.634,0.275 2.175,0.828 m -5.669,-1.112 c -0.822,0.787 -1.258,1.975 -1.303,3.563 -0.011,0.345 -0.017,0.834 -0.017,1.467 0,0.633 0.006,1.115 0.017,1.45 0.045,1.553 0.494,2.735 1.346,3.546 0.851,0.811 2.001,1.217 3.451,1.217 1.438,0 2.583,-0.406 3.435,-1.217 C 2.111,8.103 2.56,6.921 2.606,5.368 2.629,4.7 2.641,4.218 2.641,3.918 2.641,3.63 2.629,3.142 2.606,2.451 2.56,0.863 2.126,-0.325 1.303,-1.112 0.48,-1.9 -0.68,-2.295 -2.175,-2.295 c -1.507,0 -2.672,0.395 -3.494,1.183"
             style="fill:#231f20;fill-opacity:1;fill-rule:nonzero;stroke:none"
             id="path80" /></g><g
           id="g82"
           transform="translate(240.624,43.4648)"><path
             d="m 0,0 c 0.541,0.553 0.835,1.398 0.88,2.538 0.024,0.69 0.036,1.15 0.036,1.38 C 0.916,4.17 0.904,4.632 0.88,5.299 0.835,6.437 0.538,7.282 -0.008,7.835 -0.555,8.388 -1.276,8.663 -2.175,8.663 -3.084,8.663 -3.811,8.388 -4.357,7.835 -4.904,7.282 -5.2,6.437 -5.246,5.299 -5.257,4.965 -5.264,4.505 -5.264,3.918 c 0,-0.576 0.007,-1.035 0.018,-1.38 C -5.2,1.398 -4.904,0.553 -4.357,0 c 0.546,-0.553 1.273,-0.828 2.182,-0.828 0.909,0 1.634,0.275 2.175,0.828 m -5.668,-1.112 c -0.823,0.787 -1.258,1.975 -1.304,3.563 -0.011,0.345 -0.016,0.834 -0.016,1.467 0,0.633 0.005,1.115 0.016,1.45 0.046,1.553 0.495,2.735 1.347,3.546 0.851,0.811 2.001,1.217 3.45,1.217 1.439,0 2.584,-0.406 3.436,-1.217 C 2.112,8.103 2.56,6.921 2.607,5.368 2.629,4.7 2.641,4.218 2.641,3.918 2.641,3.63 2.629,3.142 2.607,2.451 2.56,0.863 2.126,-0.325 1.304,-1.112 0.48,-1.9 -0.679,-2.295 -2.175,-2.295 c -1.507,0 -2.672,0.395 -3.493,1.183"
             style="fill:#231f20;fill-opacity:1;fill-rule:nonzero;stroke:none"
             id="path84" /></g><g
           id="g86"
           transform="translate(245.8936,41.4551)"><path
             d="m 0,0 c -0.072,0.074 -0.109,0.17 -0.109,0.284 v 11.287 c 0,0.116 0.037,0.209 0.109,0.285 0.079,0.075 0.173,0.113 0.288,0.113 h 0.914 c 0.115,0 0.209,-0.038 0.284,-0.113 0.076,-0.076 0.113,-0.169 0.113,-0.285 V 1.39 H 7.327 C 7.455,1.39 7.555,1.352 7.631,1.277 7.706,1.201 7.743,1.101 7.743,0.975 V 0.284 C 7.743,0.17 7.701,0.074 7.623,0 7.542,-0.076 7.442,-0.112 7.327,-0.112 H 0.288 C 0.173,-0.112 0.079,-0.076 0,0"
             style="fill:#231f20;fill-opacity:1;fill-rule:nonzero;stroke:none"
             id="path88" /></g><g
           id="g90"
           transform="translate(131.5244,31.6592)"><path
             d="m 0,0 -0.735,75.641 0.668,0.005 0.735,-75.64 z"
             style="fill:#231f20;fill-opacity:1;fill-rule:nonzero;stroke:none"
             id="path92" /></g></g></g></g></svg>
